<svg width="298" height="89" viewBox="0 0 298 89" fill="none" xmlns="http://www.w3.org/2000/svg">
<path d="M99.5756 14.8462H105.474L119.286 44.6189C122.535 51.6206 125.813 58.9377 129.169 65.8657C131.353 62.9899 133.637 59.6699 135.765 56.7119C138.351 53.1688 140.912 49.6079 143.449 46.0293C142.515 44.9253 140.878 42.4913 139.985 41.2516L132.484 30.828C131.307 29.1929 129.606 26.6806 128.369 25.1837H138.012C138.494 25.9611 139.175 26.8814 139.731 27.6117C142.635 31.4299 145.306 35.6349 148.267 39.3885C151.695 34.7053 155.032 29.8235 158.496 25.1837H168.053C167.587 25.7411 166.873 26.8052 166.411 27.4457L163.168 31.9454L153.018 46.0304C153.237 46.4407 154.166 47.6725 154.486 48.1133L157.48 52.2526L168.043 66.9289H158.492C156.088 63.7164 153.787 60.2841 151.394 57.0526C150.401 55.7115 149.269 53.9609 148.234 52.7265C147.708 53.4107 147.166 54.1733 146.671 54.8833C143.857 58.9261 140.761 62.861 137.995 66.9289H121.068C119.355 63.5587 117.679 59.9241 116.039 56.5029H89.0117C87.3261 59.9346 85.6742 63.4708 84.0335 66.9289H75.5105C77.3551 62.7799 79.3798 58.5439 81.2909 54.4145L92.4893 30.2273L97.1902 20.0799C97.8268 18.7065 99.0784 16.2037 99.5756 14.8462ZM92.0359 48.7259H102.428H112.805L105.265 32.7455C104.889 31.9448 102.819 27.3568 102.506 27.0376C99.0421 34.1537 95.5956 41.7206 92.0359 48.7259Z" fill="#444444"/>
<path d="M278.721 23.7421C279.72 23.5998 282.209 23.7952 283.221 23.9565C289.651 24.9818 294.194 28.1023 297.999 33.2777L272.67 58.7944C277.028 61.3621 283.14 61.2252 287.376 58.4799C288.869 57.5118 289.969 56.3889 291.206 55.1302L295.815 59.7734L296.676 60.6404C292.048 65.4009 287.639 68.0003 280.939 68.3665C268.576 69.0422 258.196 59.4808 257.637 47.0513C257.082 34.73 266.526 24.2207 278.721 23.7421ZM267.205 53.2783L270.722 49.7363L286.966 33.372C284.052 31.7286 281.411 31.299 278.085 31.5737C269.91 32.6121 264.358 39.9401 265.457 48.085C265.683 49.7554 266.257 51.8766 267.205 53.2783Z" fill="#444444"/>
<path d="M186.961 23.742C188.045 23.6199 190.14 23.7606 191.217 23.9223C197.817 24.9133 202.286 28.0031 206.22 33.2458L180.91 58.7943C185.208 61.3553 191.354 61.2179 195.556 58.518C197.079 57.5384 198.187 56.4113 199.446 55.1301L204.014 59.7322L204.916 60.6403C202.498 63.1377 200.057 65.2336 196.845 66.6005C188.884 69.9892 179.515 68.5863 173.134 62.6164C168.584 58.4438 166.198 53.2623 165.875 47.0932C165.234 34.8569 174.708 24.2393 186.961 23.742ZM175.437 53.2751L178.921 49.7773L195.201 33.3774C192.359 31.6938 189.521 31.3202 186.28 31.5791C178.127 32.6082 172.563 40.0095 173.7 48.1269C173.931 49.7775 174.5 51.8884 175.437 53.2751Z" fill="#444444"/>
<path d="M261.615 0.179107C262.814 0.0700416 264.105 0.0980494 265.314 0.099435V7.86374C264.911 7.85899 264.507 7.85691 264.105 7.8576C260.267 7.86809 257.159 8.91767 254.448 11.7184C250.307 15.998 250.658 19.7592 250.675 25.1835H256.569V32.9415C254.874 33.0332 252.243 32.8174 250.675 33.0043L250.676 55.8631L250.678 62.69C250.679 64.4708 250.728 66.301 250.523 68.0657C250.293 69.9894 249.786 71.8689 249.016 73.6444C246.764 78.7223 242.626 82.7089 237.49 84.7487C233.789 86.1452 232.106 86.0017 228.337 86.1293V78.3305C229.573 78.3427 230.422 78.3385 231.649 78.2351C236.249 77.8876 240.842 74.0299 242.284 69.6565C243.354 66.4088 242.973 61.2023 242.973 57.6783L242.976 30.9412L242.973 23.5864C242.971 21.6429 242.911 19.4139 243.23 17.5123C243.812 14.0453 245.137 10.8074 247.36 8.06445C251.164 3.36941 255.671 0.838842 261.615 0.179107Z" fill="#444444"/>
<path d="M210.751 14.8462H218.497V66.9289H210.751V14.8462Z" fill="#444444"/>
<path d="M226.864 25.1836H234.563V66.9288H226.864V25.1836Z" fill="#444444"/>
<path d="M226.864 13.3618H234.563V22.6233H226.864V13.3618Z" fill="#444444"/>
<path d="M45.8348 77.9951C48.1888 77.6388 50.3839 79.2722 50.7378 81.6439C51.0915 84.0152 49.4702 86.2262 47.1163 86.5825C44.7622 86.9398 42.5669 85.3058 42.213 82.9345C41.8592 80.5629 43.4807 78.3515 45.8348 77.9951ZM47.1705 84.4982C47.8554 84.136 48.2438 83.8104 48.4839 83.0265C48.6771 82.403 48.6159 81.728 48.3138 81.1503C47.7666 80.1274 46.9216 79.9449 45.8558 80.0605C45.17 80.3905 44.7427 80.6971 44.4768 81.4677C44.2616 82.1012 44.3154 82.7969 44.6252 83.3897C45.1584 84.42 46.0929 84.6872 47.1705 84.4982Z" fill="#444444"/>
<path d="M31.355 75.7573H33.6507V79.9684H37.9374V75.7573H40.2331V86.3471H37.9374V82.0914H33.6507V86.3471H31.355V75.7573Z" fill="#444444"/>
<path d="M51.3792 78.2314H53.6761C54.0633 79.5161 54.5214 81.8775 54.9768 83.0345C55.488 81.7835 56.0205 79.6452 56.4981 78.2314L58.4572 78.2365C58.8854 79.7774 59.4309 81.5766 59.9541 83.077C60.1905 82.4753 61.0979 78.8886 61.2275 78.2314H63.5309L62.6994 80.8844C62.5451 81.6766 61.2972 85.6107 61.0077 86.446L58.9412 86.441C58.6861 85.2158 57.8454 82.7682 57.4437 81.4846L55.8984 86.446H53.8858C53.0249 84.1132 52.1404 80.7074 51.3792 78.2314Z" fill="#444444"/>
<path d="M89.661 75.2632H91.911V86.3419H89.6653L89.6587 85.3087C88.4603 86.5735 87.4573 86.8249 85.8148 86.2637C83.3008 85.1394 82.8956 81.3944 84.4655 79.3722C85.0329 78.6265 85.8773 78.1455 86.8042 78.04C88.0259 77.9096 88.7752 78.4049 89.6609 79.1273L89.661 75.2632ZM88.3351 84.5495C90.6153 83.1135 89.9258 79.716 87.2473 80.0267C84.9436 81.1833 85.4171 84.8435 88.3351 84.5495Z" fill="#444444"/>
<path d="M72.7548 77.9956C75.1087 77.6393 77.3038 79.2727 77.6577 81.6444C78.0115 84.0157 76.3901 86.2267 74.0362 86.583C71.6821 86.9403 69.4868 85.3063 69.133 82.935C68.7791 80.5633 70.4006 78.352 72.7548 77.9956ZM74.0904 84.4987C74.7754 84.1365 75.1637 83.8109 75.4038 83.027C75.597 82.4035 75.5358 81.7285 75.2337 81.1508C74.6866 80.1279 73.8415 79.9454 72.7757 80.061C72.0899 80.3909 71.6627 80.6976 71.3967 81.4682C71.1816 82.1016 71.2353 82.7974 71.5452 83.3902C72.0783 84.4205 73.0129 84.6877 74.0904 84.4987Z" fill="#444444"/>
<path d="M79.4424 75.3491H81.6924V86.3475H79.4424V75.3491Z" fill="#444444"/>
<path d="M116.459 77.9623C118.541 77.7317 120.195 78.903 120.686 80.9506C120.855 81.6559 120.836 82.2982 120.826 83.0151L114.938 83.0209C115.325 85.1829 117.868 85.4807 119.133 83.9125L119.531 84.309C119.828 84.5976 120.13 84.8803 120.438 85.1557C119.608 85.9924 119.16 86.3665 117.954 86.5844C113.811 87.3331 111.384 82.9792 113.632 79.6137C114.286 78.6341 115.304 78.15 116.459 77.9623ZM116.757 79.642C115.635 79.7585 115.118 80.4961 114.937 81.5541L116.97 81.5522C117.546 81.5527 118.161 81.5623 118.734 81.5463C118.597 80.4122 117.979 79.5695 116.757 79.642Z" fill="#444444"/>
<path d="M101.785 78.0823C102.744 78.0744 103.8 78.239 104.509 78.946C105.176 79.6118 105.322 80.4734 105.317 81.3773C105.315 81.8716 105.314 82.3695 105.314 82.8649L105.313 86.4892C104.631 86.4982 103.935 86.4911 103.252 86.4913L103.249 85.55C103.142 85.6633 103.031 85.782 102.915 85.8852C101.771 86.9018 99.6188 86.963 98.5812 85.7492C98.0841 85.0403 97.9598 84.059 98.224 83.2457C98.8557 81.301 101.696 81.2375 103.263 81.7592C103.267 81.6169 103.267 81.4754 103.265 81.3351C103.231 79.972 101.957 79.7779 100.87 79.9447C100.199 80.0476 99.7648 80.2118 99.1389 80.4686C98.9577 79.9438 98.797 79.3494 98.6204 78.8117C99.5861 78.4042 100.206 78.1977 101.248 78.1048C101.32 78.0879 101.692 78.0834 101.785 78.0823ZM103.258 83.1071C102.802 82.9732 101.931 82.763 101.475 82.8823C100.773 82.9735 100.115 83.3297 100.221 84.1524C100.254 84.4182 100.392 84.6591 100.605 84.8197C100.955 85.0844 101.453 85.12 101.871 85.0578C101.913 85.0517 101.953 85.0448 101.994 85.037C103.135 84.6842 103.291 84.2209 103.258 83.1071Z" fill="#444444"/>
<path d="M111.401 78.0041C111.637 77.9849 111.849 78.0104 112.082 78.0492C112.085 78.7458 112.083 79.4426 112.078 80.1393C111.907 80.1197 111.735 80.1097 111.563 80.1093C110.518 80.1025 109.724 80.711 109.506 81.7442C109.37 82.3909 109.414 83.1426 109.415 83.8071L109.415 86.4207L107.255 86.4229L107.254 86.0032L107.256 78.1315L109.452 78.1287L109.456 79.3995C109.548 79.1679 109.675 78.9518 109.833 78.7589C110.259 78.2418 110.758 78.0664 111.401 78.0041Z" fill="#444444"/>
<path d="M138.777 77.9956C141.131 77.6393 143.326 79.2727 143.679 81.6444C144.033 84.0157 142.412 86.2267 140.058 86.583C137.704 86.9403 135.508 85.3063 135.155 82.935C134.801 80.5634 136.423 78.352 138.777 77.9956ZM140.112 84.4987C140.797 84.1365 141.186 83.8109 141.426 83.027C141.619 82.4035 141.557 81.7285 141.256 81.1508C140.708 80.1279 139.864 79.9454 138.798 80.061C138.112 80.3909 137.684 80.6976 137.419 81.4682C137.204 82.1016 137.257 82.7974 137.568 83.3902C138.1 84.4205 139.034 84.6877 140.112 84.4987Z" fill="#444444"/>
<path d="M150.77 78.1772H152.757V86.2841H150.916L150.77 85.201C150.531 85.5839 150.173 85.8957 149.695 86.1364C149.217 86.3771 148.706 86.4974 148.163 86.4974C147.24 86.4974 146.518 86.202 145.997 85.6112C145.475 85.0205 145.215 84.2327 145.215 83.2481V78.1772H147.202V82.5425C147.202 83.3083 147.349 83.8608 147.642 84.1999C147.935 84.5391 148.359 84.7087 148.913 84.7087C149.543 84.7087 150.01 84.5227 150.314 84.1507C150.618 83.7678 150.77 83.1934 150.77 82.4276V78.1772Z" fill="#444444"/>
<path d="M126.226 78.2319H128.61C129.227 79.9206 129.88 82.0165 130.428 83.7327L132.157 78.2319H134.537C133.789 80.0353 133.105 82.1185 132.379 83.9742C131.201 87.26 130.884 89.7768 126.795 88.2249L127.553 86.5514C128.136 86.7651 128.582 86.9829 129.116 86.5979C129.151 86.5157 129.269 86.2782 129.249 86.2119C128.46 83.5565 127.042 80.8536 126.226 78.2319Z" fill="#444444"/>
<path d="M158.755 78.0036C158.991 77.9844 159.203 78.01 159.436 78.0487C159.439 78.7454 159.437 79.4421 159.432 80.1388C159.261 80.1192 159.089 80.1092 158.917 80.1088C157.872 80.102 157.078 80.7105 156.86 81.7438C156.724 82.3904 156.768 83.1421 156.769 83.8066L156.769 86.4202L154.609 86.4224L154.608 86.0027L154.61 78.131L156.806 78.1283L156.81 79.399C156.902 79.1674 157.029 78.9514 157.187 78.7585C157.613 78.2413 158.112 78.0659 158.755 78.0036Z" fill="#444444"/>
<path d="M209.964 77.8374C211.924 77.8344 213.283 79.0732 213.705 80.9528C213.855 81.6202 213.839 82.2367 213.837 82.9144L207.948 82.9223C208.295 85.0712 210.834 85.3656 212.149 83.8313L212.564 84.2472C212.848 84.518 213.138 84.8012 213.439 85.051C211.97 86.8181 209.283 87.041 207.447 85.7267C205.55 84.3684 205.27 81.3304 206.642 79.5077C207.399 78.503 208.308 78.0412 209.533 77.8569C209.676 77.8436 209.82 77.8371 209.964 77.8374ZM211.741 81.4485C211.623 80.3882 210.941 79.3995 209.77 79.5418C208.67 79.649 208.121 80.4078 207.946 81.4522L209.965 81.4535L211.741 81.4485Z" fill="#444444"/>
<path d="M189.818 77.8618C191.9 77.6312 193.555 78.8017 194.046 80.8493C194.215 81.5549 194.196 82.1974 194.185 82.9146L188.298 82.9203C188.684 85.0823 191.227 85.3799 192.492 83.8117L192.891 84.2084C193.187 84.497 193.489 84.7791 193.798 85.0545C192.968 85.8913 192.519 86.2655 191.314 86.4834C187.17 87.2324 184.743 82.8781 186.991 79.5126C187.645 78.5329 188.664 78.0494 189.818 77.8618ZM192.094 81.4459C191.957 80.3115 191.339 79.4681 190.117 79.5407C188.996 79.657 188.478 80.3948 188.297 81.4529L190.33 81.4508C190.906 81.4513 191.521 81.4619 192.094 81.4459Z" fill="#444444"/>
<path d="M168.584 77.926C169.543 77.9182 170.599 78.0827 171.308 78.7897C171.975 79.4556 172.12 80.3172 172.116 81.2211C172.114 81.7153 172.113 82.2132 172.113 82.7086L172.112 86.3329C171.43 86.3419 170.734 86.3348 170.051 86.335L170.047 85.3938C169.941 85.507 169.83 85.6258 169.713 85.7289C168.57 86.7455 166.418 86.8067 165.38 85.5929C164.883 84.8841 164.759 83.9027 165.023 83.0894C165.655 81.1447 168.494 81.0812 170.061 81.6029C170.065 81.4606 170.066 81.3191 170.063 81.1788C170.03 79.8158 168.756 79.6216 167.669 79.7884C166.998 79.8913 166.564 80.0556 165.938 80.3123C165.757 79.7875 165.596 79.1931 165.419 78.6555C166.385 78.248 167.004 78.0414 168.046 77.9486C168.119 77.9317 168.491 77.9272 168.584 77.926ZM170.057 82.9508C169.6 82.8169 168.729 82.6068 168.274 82.726C167.572 82.8172 166.914 83.1735 167.02 83.9962C167.053 84.2619 167.191 84.5029 167.404 84.6635C167.753 84.9281 168.252 84.9638 168.67 84.9015C168.711 84.8955 168.752 84.8885 168.793 84.8807C169.934 84.528 170.089 84.0647 170.057 82.9508Z" fill="#444444"/>
<path d="M217.686 77.8581C218.91 77.671 220.268 78.1686 221.276 78.8465C220.993 79.2793 220.672 79.8625 220.405 80.3179C219.779 79.8857 219.069 79.549 218.298 79.53C217.829 79.5012 217.062 79.626 217.078 80.2548C217.092 80.8298 218.131 81.087 218.56 81.238C219.369 81.5118 220.242 81.758 220.874 82.3668C221.761 83.2218 221.617 84.8619 220.771 85.6949C220.05 86.4046 219.063 86.5518 218.105 86.5517C216.897 86.5664 215.664 86.081 214.697 85.3707C214.993 84.855 215.294 84.3426 215.601 83.8334C215.646 83.872 215.691 83.9095 215.738 83.9461C216.534 84.5725 217.463 84.9276 218.478 84.8407C218.926 84.8023 219.537 84.4814 219.404 83.9716C219.199 83.1864 217.706 83.0653 217.052 82.7646C216.624 82.5673 216.267 82.4843 215.892 82.1735C214.871 81.461 214.83 79.852 215.53 78.8972C216.036 78.2073 216.856 77.9727 217.686 77.8581Z" fill="#444444"/>
<path d="M180.89 75.7781L183.033 75.7729C183.018 76.5145 183.03 77.2956 183.029 78.0403L185.184 78.0429C185.191 78.6763 185.184 79.3244 185.184 79.959C184.47 79.9682 183.742 79.9603 183.026 79.9641L183.022 82.3788C183.021 83.0197 182.831 84.4145 183.66 84.5712C184.184 84.6701 184.71 84.4375 185.174 84.2224L185.175 85.2309L185.175 86.1106C184.657 86.3393 184.097 86.4576 183.53 86.4581C182.84 86.4629 182.021 86.3168 181.519 85.8073C180.755 85.0314 180.889 83.6993 180.889 82.6875L180.887 79.9634L179.698 79.966L179.703 78.0463C180.091 78.0372 180.497 78.0418 180.887 78.0403C180.904 77.3047 180.89 76.5176 180.89 75.7781Z" fill="#444444"/>
<path d="M178.118 77.9177C178.355 77.8985 178.566 77.924 178.799 77.9627C178.802 78.6594 178.801 79.3561 178.795 80.0528C178.624 80.0332 178.452 80.0233 178.28 80.0229C177.235 80.0161 176.441 80.6246 176.223 81.6578C176.087 82.3045 176.132 83.0561 176.132 83.7207L176.133 86.3343L173.972 86.3365L173.972 85.9167L173.973 78.045L176.169 78.0423L176.173 79.3131C176.266 79.0815 176.393 78.8654 176.55 78.6725C176.976 78.1553 177.476 77.98 178.118 77.9177Z" fill="#444444"/>
<path d="M199.879 77.919C200.093 77.8953 200.326 77.9298 200.538 77.9614C200.542 78.6611 200.541 79.3608 200.535 80.0605C199.259 79.8743 198.207 80.3986 197.933 81.7386C197.794 82.4186 197.839 83.1105 197.84 83.8029L197.843 86.3332L195.71 86.3352L195.712 85.9096V78.0455C196.421 78.0301 197.169 78.0382 197.879 78.0454C197.878 78.4525 197.882 78.8596 197.89 79.2666C198.353 78.377 198.864 78.0103 199.879 77.919Z" fill="#444444"/>
<path d="M202.503 78.0396L204.305 78.0436C204.328 78.9333 204.307 79.9356 204.307 80.8334L204.305 86.3327L203.999 86.3342L202.067 86.335C202.09 85.41 202.07 84.4021 202.07 83.472L202.071 78.0452L202.503 78.0396Z" fill="#444444"/>
<path d="M202.07 74.7888L204.331 74.7886C204.335 75.4607 204.362 76.3193 204.327 76.9802L202.07 76.9795L202.07 74.7888Z" fill="#444444"/>
<path d="M7.51562 5.23482C12.2635 1.20963 17.5294 -0.40541 23.7091 0.085283C25.536 0.24146 27.3322 0.655625 29.0447 1.31535C34.7888 3.46518 37.3585 6.9091 41.5853 11.1194C45.9511 15.4679 50.2992 19.8211 54.6425 24.1937C53.3058 28.3229 53.1235 28.8862 54.6425 24.1937L63.5064 33.1303L65.5622 35.2062L69.7007 31.0599C72.5168 28.2246 74.6405 26.2749 74.7479 21.9045C74.8142 19.2028 73.7546 16.5969 71.8554 14.669C69.9932 12.7646 67.4459 11.6996 64.7924 11.7161C60.3309 11.7227 58.3787 13.9984 55.5224 16.8936L47.3114 8.6059C48.3515 7.55049 49.753 6.06892 50.8561 5.12851C54.637 1.84894 59.4568 0.0384669 64.4462 0.0237166C70.4619 -0.0105271 75.6991 1.97765 80.0089 6.28928C84.1061 10.3769 86.4129 15.9439 86.4167 21.7531C86.4153 25.8861 85.2482 29.9335 83.0513 33.424C81.2494 36.2601 78.9436 38.3108 76.5888 40.6791L69.2007 48.1121L43.2025 74.3396L18.019 48.9713L9.94844 40.8444C8.38673 39.2714 6.76423 37.7139 5.30165 36.058C-2.56729 27.1489 -1.55138 12.9216 7.51562 5.23482ZM33.0454 19.0927C29.495 15.491 26.4183 11.2233 20.8329 11.7428C18.0314 12.0034 15.8013 13.1346 13.9649 15.3008C12.2565 17.3402 11.4302 19.9839 11.6704 22.6415C11.9949 26.5768 13.9961 28.2909 16.5841 30.8991L21.2102 35.5602L35.254 49.7049C37.5866 52.0541 40.7096 55.0309 42.8546 57.4345C47.4797 52.8396 52.6647 48.0609 57.158 43.4189C57.1661 43.4079 57.176 43.3953 57.1877 43.3814C56.6372 42.8302 56.0542 42.2668 55.5442 41.6812C55.09 35.327 55.1121 35.6354 55.5442 41.6812C55.2006 41.3724 54.7716 41.0136 54.4519 40.677C52.5155 38.6376 50.3521 36.6869 48.4552 34.612L48.2724 34.4109C46.7968 33.1186 44.7208 30.8599 43.2835 29.4159L33.0454 19.0927Z" fill="#ED6534"/>
<path opacity="0.62" d="M49.0757 18.6021C50.9446 20.4747 52.8117 22.3496 54.6778 24.2283L63.5416 33.1649L65.5612 35.2067L57.1813 43.3744C56.6432 42.8365 56.0766 42.2866 55.5794 41.7158C55.2359 41.4069 54.8068 41.0482 54.4871 40.7115C52.5508 38.6722 50.3874 36.7215 48.4904 34.6466L48.3077 34.4455C46.832 33.1531 44.7561 30.8945 43.3187 29.4505L39.7014 25.803L49.0757 18.6021Z" fill="url(#paint0_linear_2001_500)"/>
<defs>
<linearGradient id="paint0_linear_2001_500" x1="46.5342" y1="23.0053" x2="69.7785" y2="46.0793" gradientUnits="userSpaceOnUse">
<stop stop-opacity="0"/>
<stop offset="1"/>
</linearGradient>
</defs>
</svg>
